<svg width="376" height="295" fill="none" xmlns="http://www.w3.org/2000/svg"><path d="M109.968 236.456c-26.112 0-47.232-9.888-63.36-29.664C30.48 186.824 22.416 161.96 22.416 132.2c0-29.376 8.16-54.048 24.48-74.016 16.512-20.16 37.728-30.24 63.648-30.24s46.944 9.984 63.072 29.952c16.32 19.968 24.48 44.736 24.48 74.304 0 29.376-8.256 54.144-24.768 74.304-16.32 19.968-37.44 29.952-63.36 29.952zm-36.864-52.704c9.6 13.824 22.08 20.736 37.44 20.736s27.648-6.816 36.864-20.448c9.408-13.824 14.112-31.104 14.112-51.84 0-20.352-4.8-37.44-14.4-51.264-9.6-14.016-21.984-21.024-37.152-21.024-15.36 0-27.744 6.912-37.152 20.736C63.6 94.28 58.992 111.464 58.992 132.2c0 20.352 4.704 37.536 14.112 51.552zM212.746 233v-27.936l69.408-59.04c14.208-11.904 24-21.696 29.376-29.376 5.568-7.872 8.352-16.224 8.352-25.056 0-9.6-3.072-17.184-9.216-22.752-6.144-5.76-13.92-8.64-23.328-8.64-8.832 0-16.8 2.4-23.904 7.2-6.912 4.8-14.496 12.48-22.752 23.04l-25.056-19.584c10.368-14.592 21.024-25.248 31.968-31.968 11.136-6.912 25.248-10.368 42.336-10.368 19.776 0 35.808 5.568 48.096 16.704 12.288 11.136 18.432 25.824 18.432 44.064 0 7.872-.96 14.976-2.88 21.312-1.92 6.144-5.376 12.48-10.368 19.008a137.817 137.817 0 01-15.84 17.568c-5.568 5.184-13.344 11.904-23.328 20.16l-41.472 34.56h95.904V233H212.746z" fill="#DE2E2F"/><path fill="#fff" d="M0 0h126v295H0z"/></svg>