<svg width="93" height="88" fill="none" xmlns="http://www.w3.org/2000/svg"><path d="M29.104 62.768c-5.803 0-10.496-2.197-14.08-6.592-3.584-4.437-5.376-9.963-5.376-16.576 0-6.528 1.813-12.01 5.44-16.448 3.67-4.48 8.384-6.72 14.144-6.72s10.432 2.219 14.016 6.656c3.627 4.437 5.44 9.941 5.44 16.512 0 6.528-1.835 12.032-5.504 16.512-3.627 4.437-8.32 6.656-14.08 6.656zm-8.192-11.712c2.133 3.072 4.907 4.608 8.32 4.608 3.413 0 6.144-1.515 8.192-4.544 2.09-3.072 3.136-6.912 3.136-11.52 0-4.523-1.067-8.32-3.2-11.392-2.133-3.115-4.885-4.672-8.256-4.672-3.413 0-6.165 1.536-8.256 4.608-2.048 3.03-3.072 6.848-3.072 11.456 0 4.523 1.045 8.341 3.136 11.456zm51.96 11.712c-7.126 0-12.843-2.624-17.153-7.872l5.505-5.12c3.328 3.925 7.253 5.888 11.776 5.888 2.26 0 4.117-.619 5.567-1.856 1.451-1.28 2.177-2.965 2.177-5.056 0-2.176-.94-3.861-2.817-5.056-1.834-1.237-4.33-1.856-7.488-1.856h-3.647l-1.28-4.928 12.096-12.864H58.215V17.2h29.632v5.888l-12.48 12.8c3.926.555 7.105 1.877 9.536 3.968 2.432 2.048 3.648 4.97 3.648 8.768 0 4.139-1.472 7.53-4.416 10.176-2.9 2.645-6.656 3.968-11.264 3.968z" fill="#fff"/><path fill="#DE2E2F" d="M0 3h30v82H0z"/></svg>