<svg width="377" height="295" fill="none" xmlns="http://www.w3.org/2000/svg"><path d="M109.968 236.456c-26.112 0-47.232-9.888-63.36-29.664C30.48 186.824 22.416 161.96 22.416 132.2c0-29.376 8.16-54.048 24.48-74.016 16.512-20.16 37.728-30.24 63.648-30.24s46.944 9.984 63.072 29.952c16.32 19.968 24.48 44.736 24.48 74.304 0 29.376-8.256 54.144-24.768 74.304-16.32 19.968-37.44 29.952-63.36 29.952zm-36.864-52.704c9.6 13.824 22.08 20.736 37.44 20.736s27.648-6.816 36.864-20.448c9.408-13.824 14.112-31.104 14.112-51.84 0-20.352-4.8-37.44-14.4-51.264-9.6-14.016-21.984-21.024-37.152-21.024-15.36 0-27.744 6.912-37.152 20.736C63.6 94.28 58.992 111.464 58.992 132.2c0 20.352 4.704 37.536 14.112 51.552zm215.098 52.704c-32.064 0-57.792-11.808-77.184-35.424l24.768-23.04c14.976 17.664 32.64 26.496 52.992 26.496 10.176 0 18.528-2.784 25.056-8.352 6.528-5.76 9.792-13.344 9.792-22.752 0-9.792-4.224-17.376-12.672-22.752-8.256-5.568-19.488-8.352-33.696-8.352h-16.416l-5.76-22.176 54.432-57.888H222.25V31.4h133.344v26.496l-56.16 57.6c17.664 2.496 31.968 8.448 42.912 17.856 10.944 9.216 16.416 22.368 16.416 39.456 0 18.624-6.624 33.888-19.872 45.792-13.056 11.904-29.952 17.856-50.688 17.856z" fill="#DE2E2F"/><path fill="#fff" d="M0 0h126v295H0z"/></svg>