<svg width="93" height="88" fill="none" xmlns="http://www.w3.org/2000/svg"><path d="M29.104 62.768c-5.803 0-10.496-2.197-14.08-6.592-3.584-4.437-5.376-9.963-5.376-16.576 0-6.528 1.813-12.01 5.44-16.448 3.67-4.48 8.384-6.72 14.144-6.72s10.432 2.219 14.016 6.656c3.627 4.437 5.44 9.941 5.44 16.512 0 6.528-1.835 12.032-5.504 16.512-3.627 4.437-8.32 6.656-14.08 6.656zm-8.192-11.712c2.133 3.072 4.907 4.608 8.32 4.608 3.413 0 6.144-1.515 8.192-4.544 2.09-3.072 3.136-6.912 3.136-11.52 0-4.523-1.067-8.32-3.2-11.392-2.133-3.115-4.885-4.672-8.256-4.672-3.413 0-6.165 1.536-8.256 4.608-2.048 3.03-3.072 6.848-3.072 11.456 0 4.523 1.045 8.341 3.136 11.456zM56.103 62v-6.208l15.425-13.12c3.157-2.645 5.333-4.821 6.527-6.528 1.238-1.75 1.856-3.605 1.856-5.568 0-2.133-.682-3.819-2.047-5.056-1.366-1.28-3.094-1.92-5.184-1.92-1.963 0-3.734.533-5.313 1.6-1.535 1.067-3.22 2.773-5.056 5.12l-5.568-4.352c2.304-3.243 4.672-5.61 7.104-7.104 2.475-1.536 5.611-2.304 9.408-2.304 4.395 0 7.958 1.237 10.689 3.712 2.73 2.475 4.096 5.739 4.096 9.792 0 1.75-.214 3.328-.64 4.736-.427 1.365-1.195 2.773-2.305 4.224a30.63 30.63 0 01-3.52 3.904c-1.237 1.152-2.965 2.645-5.184 4.48l-9.216 7.68h21.313V62H56.102z" fill="#fff"/><path fill="#DE2E2F" d="M0 3h30v82H0z"/></svg>