<svg width="116" height="19" fill="none" xmlns="http://www.w3.org/2000/svg"><path fill-rule="evenodd" clip-rule="evenodd" d="M1.48 14.697A1.48 1.48 0 000 16.174c0 .816.661 1.47 1.48 1.47.818 0 1.474-.654 1.474-1.47 0-.812-.66-1.476-1.474-1.476zM5.4 7.972a1.474 1.474 0 100 2.947 1.473 1.473 0 100-2.947zm3.909-6.836c-.813 0-1.48.66-1.48 1.476 0 .811.661 1.47 1.48 1.47a1.47 1.47 0 001.475-1.47 1.48 1.48 0 00-1.475-1.476zm-.546 13.028a2.12 2.12 0 00-2.125 2.12c0 1.177.955 2.125 2.125 2.125 1.176 0 2.13-.948 2.13-2.125a2.128 2.128 0 00-2.13-2.12zm3.826-6.914a2.13 2.13 0 00-2.13 2.124 2.13 2.13 0 002.13 2.125 2.125 2.125 0 100-4.25zM16.566.487a2.121 2.121 0 100 4.245c1.176 0 2.13-.948 2.13-2.12 0-1.173-.95-2.125-2.13-2.125zm4.644 6.375a2.643 2.643 0 100 5.287 2.646 2.646 0 002.65-2.644 2.646 2.646 0 00-2.65-2.643zm-3.972 6.851a2.646 2.646 0 00-2.65 2.644A2.65 2.65 0 0017.238 19a2.65 2.65 0 002.65-2.643 2.646 2.646 0 00-2.65-2.643zm15.795 0a2.646 2.646 0 00-2.65 2.644A2.65 2.65 0 0033.033 19a2.646 2.646 0 002.65-2.643 2.646 2.646 0 00-2.65-2.643zM29.06 6.862a2.643 2.643 0 100 5.287 2.646 2.646 0 002.65-2.644 2.646 2.646 0 00-2.65-2.643zM25.04 0a2.645 2.645 0 00-2.65 2.638 2.646 2.646 0 002.65 2.643 2.65 2.65 0 002.65-2.643A2.652 2.652 0 0025.04 0z" fill="#fff"/><path d="M47.647 10.887l.666.377c-.22.466-.467.843-.755 1.125a2.996 2.996 0 01-.96.65c-.363.146-.762.22-1.213.22-.997 0-1.779-.357-2.34-1.069-.562-.711-.85-1.512-.85-2.407 0-.848.241-1.597.713-2.256.61-.843 1.417-1.256 2.425-1.256 1.044 0 1.873.429 2.503 1.282.44.607.666 1.366.677 2.277h-5.505c.016.774.247 1.402.677 1.9.44.497.986.743 1.627.743.315 0 .614-.063.913-.183.288-.115.545-.267.75-.466.21-.188.436-.508.672-.937zm0-1.79c-.105-.46-.257-.822-.457-1.094a2.249 2.249 0 00-.797-.66 2.275 2.275 0 00-1.045-.25 2.16 2.16 0 00-1.548.627c-.32.304-.55.765-.713 1.377h4.56zm2.214-5.224h.787v9.218h-.787V3.873zm7.577 7.014l.662.377c-.215.466-.467.843-.756 1.125a2.94 2.94 0 01-.96.65c-.357.146-.761.22-1.212.22-.997 0-1.78-.357-2.34-1.069a3.761 3.761 0 01-.85-2.407c0-.848.24-1.597.713-2.256.603-.843 1.417-1.256 2.424-1.256 1.044 0 1.879.429 2.503 1.282.446.607.667 1.366.672 2.277h-5.505c.021.774.247 1.402.682 1.9.441.497.987.743 1.627.743.315 0 .614-.063.913-.183.289-.115.546-.267.75-.466.216-.188.441-.508.677-.937zm0-1.79c-.104-.46-.257-.822-.461-1.094a2.203 2.203 0 00-.798-.66 2.254 2.254 0 00-1.039-.25 2.15 2.15 0 00-1.548.627c-.315.304-.55.765-.713 1.377h4.56zm1.753-2.654h.845l2.052 4.847 2.03-4.847h.835l-2.797 6.648h-.157L59.19 6.443zm12.117 4.444l.666.377c-.22.466-.462.843-.75 1.125a2.928 2.928 0 01-.971.65c-.352.146-.75.22-1.202.22-1.002 0-1.779-.357-2.346-1.069a3.781 3.781 0 01-.84-2.407c0-.848.237-1.597.715-2.256.608-.843 1.416-1.256 2.43-1.256 1.038 0 1.878.429 2.502 1.282.44.607.661 1.366.672 2.277h-5.505c.021.774.242 1.402.682 1.9.447.497.982.743 1.632.743.31 0 .61-.063.903-.183.3-.115.55-.267.76-.466.19-.188.405-.508.651-.937zm0-1.79c-.105-.46-.252-.822-.452-1.094a2.266 2.266 0 00-.803-.66 2.265 2.265 0 00-1.033-.25 2.14 2.14 0 00-1.548.627c-.326.304-.562.765-.724 1.377h4.56zm3.127-2.654v1.194c.31-.456.661-.801 1.039-1.026.388-.225.803-.34 1.254-.34.451 0 .86.12 1.218.376.346.252.614.592.776 1.021.168.43.252 1.094.252 2v3.417h-.782V9.914c0-.765-.037-1.278-.084-1.529-.094-.445-.273-.775-.525-.994-.262-.225-.603-.335-1.017-.335-.478 0-.898.167-1.276.513-.378.34-.63.764-.75 1.266-.074.335-.11.932-.11 1.811v2.44h-.793V6.442h.798zm14.693 0h.787v5.303c0 .931-.074 1.612-.22 2.046a2.62 2.62 0 01-1.076 1.413c-.51.325-1.123.492-1.837.492a3.949 3.949 0 01-1.411-.24c-.425-.163-.766-.372-1.024-.65-.267-.272-.509-.67-.729-1.188h.855c.237.44.53.764.898.98.367.208.824.313 1.375.313.54 0 .991-.11 1.359-.324.367-.215.63-.492.787-.822.157-.325.241-.853.241-1.586v-.346a2.995 2.995 0 01-1.086.937 2.87 2.87 0 01-1.364.33 2.988 2.988 0 01-1.59-.45 3.15 3.15 0 01-1.15-1.225 3.55 3.55 0 01-.404-1.696c0-.617.142-1.188.425-1.716a3.234 3.234 0 011.17-1.262 2.937 2.937 0 011.58-.466c.462 0 .876.105 1.275.304.399.204.777.55 1.15 1.015V6.443h-.011zm-2.325.655c-.446 0-.86.115-1.238.35-.388.23-.688.555-.903.969a2.75 2.75 0 00-.325 1.34c0 .727.22 1.334.672 1.805.446.482 1.039.717 1.752.717.73 0 1.307-.235 1.753-.706.44-.471.656-1.094.656-1.864 0-.502-.1-.947-.3-1.345a2.35 2.35 0 00-.865-.931 2.277 2.277 0 00-1.202-.335zm4.502-.655h.803v.974c.242-.382.494-.67.766-.853.258-.194.541-.283.824-.283.22 0 .446.073.698.225l-.409.722c-.168-.073-.294-.115-.415-.115-.257 0-.514.115-.755.35-.242.236-.425.598-.551 1.095-.105.377-.152 1.146-.152 2.298V13.1h-.809V6.443zm6.665-.167c.94 0 1.716.366 2.335 1.11.561.68.845 1.475.845 2.402 0 .926-.294 1.738-.892 2.434-.593.696-1.354 1.041-2.288 1.041-.94 0-1.71-.345-2.31-1.041a3.668 3.668 0 01-.891-2.434c0-.921.278-1.722.845-2.392.619-.754 1.406-1.12 2.356-1.12zm-.005.832c-.656 0-1.218.267-1.695.79-.462.524-.704 1.162-.704 1.906 0 .476.116.926.326 1.345.215.413.498.738.866.963.367.225.766.34 1.207.34.43 0 .834-.115 1.201-.34.362-.225.65-.55.871-.963.215-.419.32-.87.32-1.345 0-.744-.231-1.382-.708-1.906-.478-.523-1.034-.79-1.684-.79zm4.544-.665h.787v3.11c0 .753.037 1.282.11 1.564.11.409.325.728.646.963.32.241.697.362 1.138.362.441 0 .814-.12 1.113-.346.315-.235.519-.534.64-.91.084-.257.121-.796.121-1.628v-3.11h.797v3.267c0 .916-.099 1.607-.294 2.067a2.43 2.43 0 01-.886 1.089c-.389.261-.887.398-1.491.398-.598 0-1.091-.136-1.49-.398a2.348 2.348 0 01-.892-1.1c-.194-.465-.294-1.177-.294-2.12V6.444h-.005zm7.115 0h.787v1.225c.315-.466.667-.811 1.076-1.047a2.69 2.69 0 011.354-.345c.876 0 1.611.34 2.23 1.015.614.68.929 1.502.929 2.46 0 .979-.31 1.806-.918 2.487-.614.685-1.349 1.025-2.215 1.025-.488 0-.934-.115-1.343-.33a3.458 3.458 0 01-1.107-.983v3.575h-.787V6.442h-.006zm3.149.655c-.682 0-1.254.256-1.716.774-.472.518-.703 1.162-.703 1.926 0 .503.105.958.309 1.361.205.403.509.728.892.958.389.236.798.356 1.228.356.425 0 .824-.12 1.191-.361.373-.236.672-.57.893-1 .22-.424.33-.874.33-1.34 0-.47-.105-.916-.325-1.345-.221-.419-.509-.748-.882-.979a2.254 2.254 0 00-1.217-.35z" fill="#fff"/></svg>