<svg width="215" height="23" fill="none" xmlns="http://www.w3.org/2000/svg"><g clip-path="url(#clip0)"><path d="M28.24 4.084L15.414 18.413c-.185.197.082.475.325.348l12.827-8.157 13.013 8.226c.22.116.452-.127.29-.313L28.89 4.084c-.174-.186-.487-.186-.65 0z" fill="#121628"/><path d="M33.923 21.72L15.622.186c-.209-.243-.615-.243-.812.012L.046 18.414c-.162.208.104.464.336.324L15.355 8.563l18.197 13.494c.255.174.568-.116.371-.337zM49.975 6.265c0-.65.522-1.172 1.171-1.172h2.98c.221 0 .418.081.616.232a1.1 1.1 0 01.394.557l2.447 7.089 2.447-7.09c.07-.22.197-.405.395-.556.197-.151.394-.232.614-.232h2.97c.649 0 1.17.522 1.17 1.172v9.56c0 .65-.521 1.172-1.17 1.172h-.72c-.65 0-1.171-.522-1.171-1.172V8.086l-2.934 8.157a1.11 1.11 0 01-.406.522.976.976 0 01-.615.22H56.98a.976.976 0 01-.615-.22 1.334 1.334 0 01-.406-.522l-2.922-8.157v7.74c0 .649-.522 1.17-1.172 1.17h-.719c-.65 0-1.171-.521-1.171-1.17V6.264zm28.565 9.503c-1.136.997-2.795 1.485-4.975 1.485-2.192 0-3.85-.5-4.987-1.486-1.137-.997-1.705-2.564-1.705-4.722 0-2.158.568-3.724 1.705-4.71 1.136-.986 2.795-1.485 4.987-1.485s3.85.499 4.975 1.485c1.125.986 1.694 2.564 1.694 4.71 0 2.158-.557 3.736-1.694 4.723zm-2.273-7.681c-.556-.662-1.461-.998-2.714-.998-1.252 0-2.157.336-2.713.998-.557.661-.847 1.659-.847 2.97 0 1.311.278 2.297.847 2.959.556.66 1.46.997 2.713.997 1.253 0 2.146-.325 2.714-.997.557-.662.835-1.648.835-2.96 0-1.31-.278-2.308-.835-2.97zm6.53 7.518c-1.02-.975-1.543-2.495-1.543-4.548 0-2.054.51-3.562 1.543-4.548 1.032-.987 2.563-1.474 4.616-1.474h1.855c1.253 0 2.366.325 3.329.975.962.65 1.45 1.543 1.45 2.68 0 .325-.093.557-.29.696-.198.14-.383.209-.569.209h-.986c-.51 0-.904-.302-1.183-.917-.405-.87-1.09-1.31-2.04-1.31h-1.474c-1.206 0-2.03.254-2.47.777-.43.522-.65 1.485-.65 2.889 0 1.403.22 2.366.65 2.889.43.522 1.253.789 2.47.789h1.647c.951 0 1.624-.441 2.03-1.312.278-.614.684-.916 1.194-.916h.986c.255 0 .464.093.615.29.15.197.232.406.232.627 0 1.137-.476 2.03-1.438 2.68-.963.65-2.076.974-3.329.974h-2.03c-2.052.012-3.583-.475-4.615-1.45zm14.126-7.263c.568-2.158 2.4-3.238 5.509-3.238h4.477c.208 0 .371.082.51.233a.78.78 0 01.209.545v9.966c0 .65-.522 1.172-1.172 1.172h-.788c-.65 0-1.172-.522-1.172-1.172v-1.705h-5.903l-.534 2.007a1.18 1.18 0 01-1.136.87h-.8c-.766 0-1.334-.73-1.125-1.473l1.925-7.205zm2.285 3.434h5.288V7.448h-2.366c-.533 0-.997.151-1.391.453a2.22 2.22 0 00-.8 1.218l-.731 2.657zm10.785-5.5c0-.65.522-1.172 1.172-1.172h6.367c1.658 0 2.876.476 3.665 1.428.441.522.661 1.195.661 2.018 0 .813-.371 1.532-1.125 2.135 1.067.569 1.589 1.45 1.589 2.657s-.429 2.112-1.276 2.738c-.847.627-1.89.929-3.12.929h-6.75a1.168 1.168 0 01-1.171-1.172l-.012-9.56zm3.132 3.446h4.442c.348 0 .626-.104.835-.313.209-.209.313-.499.313-.87s-.104-.662-.313-.87c-.209-.21-.487-.314-.835-.314h-4.442v2.367zm0 5.036h4.743c.429 0 .754-.128.975-.383.231-.255.336-.604.336-1.044 0-.441-.116-.79-.336-1.045-.232-.255-.557-.383-.975-.383h-4.743v2.855zm10.798-9.665h9.765c.649 0 1.171.522 1.171 1.172 0 .65-.522 1.171-1.171 1.171l-3.317.012v8.389c0 .65-.522 1.172-1.171 1.172h-.777a1.17 1.17 0 01-1.172-1.172V7.448l-3.317-.012a1.168 1.168 0 01-1.171-1.171 1.158 1.158 0 011.16-1.172zm23.021 10.675c-1.137.997-2.795 1.485-4.975 1.485-2.192 0-3.851-.5-4.988-1.486-1.136-.997-1.704-2.564-1.704-4.722 0-2.158.568-3.724 1.704-4.71 1.137-.986 2.796-1.485 4.988-1.485 2.192 0 3.85.499 4.975 1.485 1.137.986 1.693 2.564 1.693 4.71.012 2.158-.556 3.736-1.693 4.723zm-2.262-7.681c-.556-.662-1.461-.998-2.713-.998-1.253 0-2.158.336-2.714.998-.557.661-.847 1.659-.847 2.97 0 1.311.278 2.297.847 2.959.556.66 1.461.997 2.714.997 1.252 0 2.145-.325 2.713-.997.557-.662.835-1.648.835-2.96 0-1.31-.278-2.308-.835-2.97zm6.832-2.983h8.57c.65 0 1.172.523 1.172 1.16v.012c0 .65-.522 1.172-1.172 1.172h-6.622v2.007h4.106c1.345 0 2.435.314 3.27.952.835.638 1.253 1.578 1.253 2.82 0 1.252-.418 2.192-1.253 2.819-.835.638-1.925.951-3.27.951h-6.054c-.65 0-1.172-.522-1.172-1.172v-9.56c0-.638.534-1.16 1.172-1.16zm1.96 9.55h4.105c.928 0 1.392-.476 1.392-1.428 0-.951-.464-1.427-1.392-1.427h-4.105v2.854zm11.493-9.561h8.791c.65 0 1.172.522 1.172 1.172v.011c0 .65-.522 1.172-1.172 1.172h-6.842v2.413h5.833c.65 0 1.172.522 1.172 1.172 0 .65-.522 1.172-1.172 1.172h-5.833v2.448h6.808c.649 0 1.171.522 1.171 1.172v.012c0 .65-.522 1.172-1.171 1.172h-8.768a1.17 1.17 0 01-1.172-1.172V6.265a1.186 1.186 0 011.183-1.172zm11.633 0h9.765c.649 0 1.171.522 1.171 1.172v.011c0 .65-.522 1.172-1.171 1.172h-3.317v8.389c0 .65-.522 1.172-1.171 1.172h-.789c-.65 0-1.171-.523-1.171-1.172V7.448H176.6c-.65 0-1.172-.522-1.172-1.172v-.011c0-.65.522-1.172 1.172-1.172zm23.033 10.675c-1.137.997-2.795 1.485-4.975 1.485-2.192 0-3.851-.5-4.988-1.486-1.136-.997-1.704-2.564-1.704-4.722 0-2.158.568-3.724 1.704-4.71 1.137-.986 2.796-1.485 4.988-1.485 2.191 0 3.85.499 4.975 1.485 1.137.986 1.693 2.564 1.693 4.71 0 2.158-.568 3.736-1.693 4.723zm-2.273-7.681c-.557-.662-1.462-.998-2.714-.998-1.253 0-2.157.336-2.714.998-.557.661-.847 1.659-.847 2.97 0 1.311.279 2.297.847 2.959.557.66 1.461.997 2.714.997 1.252 0 2.146-.325 2.714-.997.556-.662.835-1.648.835-2.96 0-1.31-.279-2.308-.835-2.97zm6.843-2.807h.788c.65 0 1.172.521 1.172 1.171v3.353h5.706V6.451c0-.65.522-1.172 1.171-1.172h.789c.649 0 1.171.522 1.171 1.172l-.012 9.572c0 .65-.521 1.172-1.171 1.172h-.777a1.168 1.168 0 01-1.171-1.172V12.16h-5.706v3.863c0 .65-.522 1.172-1.172 1.172h-.8c-.65 0-1.171-.522-1.171-1.172v-9.56a1.187 1.187 0 011.183-1.184z" fill="#fff"/></g><defs><clipPath id="clip0"><path fill="#fff" d="M0 0h215v22.114H0z"/></clipPath></defs></svg>