<svg width="351" height="36" fill="none" xmlns="http://www.w3.org/2000/svg"><path fill-rule="evenodd" clip-rule="evenodd" d="M43.18 20.011L56.223 35.36c.321.359-.188.83-.604.547L38.337 23.092l-11.717 7.45c-.396.208-.83-.245-.528-.566l8.589-9.595-8.685-6.44L1.622 30.505c-.378.226-.812-.19-.547-.53L25.109.323c.32-.415.982-.415 1.322-.019L39.2 15.33l7.772-8.682c.264-.302.774-.302 1.057 0l21.127 23.497c.265.302-.113.698-.472.51L47.502 17.263l-4.322 2.748zM82.354 10.2c0-1.057.85-1.907 1.907-1.907h4.853c.358 0 .68.132 1 .377.321.246.529.548.642.907l3.984 11.54 3.984-11.54c.113-.359.32-.661.641-.907.321-.245.642-.377 1.001-.377h4.833c1.058 0 1.907.85 1.907 1.907v15.564a1.902 1.902 0 01-1.907 1.907h-1.17a1.902 1.902 0 01-1.907-1.907V13.165l-4.777 13.278c-.132.34-.34.623-.66.85-.322.245-.642.358-1.001.358h-1.926c-.359 0-.68-.113-1-.358a2.172 2.172 0 01-.661-.85l-4.758-13.278v12.598c0 1.057-.85 1.907-1.907 1.907h-1.17a1.902 1.902 0 01-1.908-1.907V10.199zm38.403 17.887c3.549 0 6.249-.793 8.099-2.418 1.851-1.605 2.757-4.174 2.757-7.687 0-3.494-.925-6.063-2.757-7.668-1.831-1.606-4.531-2.418-8.099-2.418-3.569 0-6.268.812-8.119 2.418-1.85 1.605-2.775 4.155-2.775 7.668s.925 6.063 2.775 7.687c1.851 1.606 4.55 2.418 8.119 2.418zm-.019-16.546c2.039 0 3.512.548 4.418 1.625.906 1.076 1.359 2.7 1.359 4.835 0 2.134-.453 3.74-1.359 4.816-.925 1.096-2.379 1.625-4.418 1.625s-3.512-.548-4.418-1.625c-.925-1.076-1.378-2.682-1.378-4.816s.472-3.759 1.378-4.835c.906-1.077 2.379-1.625 4.418-1.625zm15.047 13.864c-1.661-1.587-2.511-4.06-2.511-7.404 0-3.343.831-5.798 2.511-7.404 1.681-1.605 4.173-2.399 7.515-2.399h3.02c2.04 0 3.852.53 5.419 1.587 1.567 1.058 2.36 2.512 2.36 4.363 0 .529-.151.907-.472 1.133-.321.227-.623.34-.925.34h-1.605c-.831 0-1.473-.49-1.926-1.492-.66-1.416-1.774-2.134-3.323-2.134h-2.397c-1.964 0-3.304.415-4.022 1.265-.698.85-1.057 2.418-1.057 4.703 0 2.286.359 3.853 1.057 4.703.699.85 2.039 1.285 4.022 1.285h2.681c1.548 0 2.643-.718 3.304-2.135.453-1 1.114-1.492 1.944-1.492h1.605c.416 0 .755.151 1.001.473.245.32.377.66.377 1.02 0 1.85-.774 3.305-2.341 4.363-1.567 1.057-3.379 1.586-5.418 1.586H143.3c-3.342.019-5.834-.774-7.515-2.36zM167.749 8.31c-5.06 0-8.043 1.757-8.968 5.27l-3.134 11.73c-.34 1.208.585 2.398 1.832 2.398h1.302a1.92 1.92 0 001.851-1.416l.868-3.268h9.61V25.8c0 1.058.85 1.908 1.907 1.908h1.284c1.057 0 1.907-.85 1.907-1.907V9.575c0-.34-.114-.642-.34-.888-.227-.245-.491-.378-.831-.378h-7.288zm3.361 10.86h-8.609l1.189-4.324c.227-.832.661-1.492 1.303-1.984.642-.49 1.397-.736 2.265-.736h3.852v7.045zm8.949-8.952c0-1.058.85-1.908 1.907-1.908h10.365c2.7 0 4.683.775 5.966 2.324.718.85 1.077 1.945 1.077 3.286 0 1.322-.605 2.493-1.832 3.475 1.737.926 2.587 2.361 2.587 4.326 0 1.964-.699 3.437-2.077 4.457-1.378 1.02-3.078 1.511-5.079 1.511h-10.988a1.902 1.902 0 01-1.907-1.907l-.019-15.564zm5.098 5.61h7.231c.566 0 1.019-.17 1.359-.51.34-.34.51-.812.51-1.417 0-.604-.17-1.076-.51-1.416-.34-.34-.793-.51-1.359-.51h-7.231v3.853zm0 8.197h7.722c.698 0 1.227-.208 1.586-.623.377-.416.547-.982.547-1.7s-.189-1.285-.547-1.7c-.378-.416-.907-.623-1.586-.623h-7.722v4.646zm33.474-15.733h-15.897a1.886 1.886 0 00-1.888 1.907c0 1.058.85 1.908 1.907 1.908l5.4.019v13.656c0 1.057.849 1.907 1.907 1.907h1.265c1.057 0 1.907-.85 1.907-1.907V12.126l5.399-.02c1.058 0 1.907-.85 1.907-1.907a1.902 1.902 0 00-1.907-1.907zm21.58 17.376c-1.85 1.625-4.55 2.418-8.099 2.418-3.569 0-6.268-.812-8.119-2.418-1.85-1.624-2.775-4.174-2.775-7.687s.925-6.063 2.775-7.668c1.851-1.606 4.55-2.418 8.119-2.418 3.568 0 6.268.812 8.099 2.418 1.851 1.605 2.757 4.174 2.757 7.668.019 3.513-.906 6.082-2.757 7.687zm-3.681-12.503c-.907-1.077-2.379-1.625-4.418-1.625s-3.512.548-4.418 1.625c-.906 1.076-1.378 2.7-1.378 4.835 0 2.134.453 3.74 1.378 4.816.906 1.077 2.379 1.625 4.418 1.625s3.493-.53 4.418-1.625c.906-1.076 1.359-2.682 1.359-4.816s-.453-3.759-1.359-4.835zm25.072-4.855H247.65c-1.038 0-1.907.85-1.907 1.89v15.563c0 1.057.85 1.907 1.907 1.907h9.855c2.191 0 3.965-.51 5.325-1.548 1.359-1.02 2.039-2.55 2.039-4.59 0-2.021-.68-3.551-2.039-4.59-1.36-1.039-3.134-1.549-5.325-1.549h-6.683v-3.267h10.78c1.058 0 1.907-.85 1.907-1.908V10.2a1.898 1.898 0 00-1.907-1.889zm-4.078 15.545h-6.683V19.21h6.683c1.511 0 2.266.774 2.266 2.323s-.755 2.323-2.266 2.323zm12.027-15.563h14.311c1.057 0 1.907.85 1.907 1.907v.02c0 1.057-.85 1.907-1.907 1.907h-11.139v3.928h9.497c1.057 0 1.906.85 1.906 1.908a1.901 1.901 0 01-1.906 1.908h-9.497v3.985h11.083c1.057 0 1.906.85 1.906 1.908v.019a1.901 1.901 0 01-1.906 1.907h-14.274a1.902 1.902 0 01-1.907-1.907V10.199a1.93 1.93 0 011.926-1.907zm34.834 0h-15.897c-1.057 0-1.907.85-1.907 1.907v.02c0 1.057.85 1.907 1.907 1.907h5.4v13.656c0 1.057.849 1.907 1.906 1.907h1.284c1.058 0 1.907-.85 1.907-1.907V12.126h5.4c1.057 0 1.907-.85 1.907-1.908V10.2c0-1.057-.85-1.907-1.907-1.907zm21.599 17.376c-1.85 1.625-4.55 2.418-8.1 2.418-3.568 0-6.268-.812-8.118-2.418-1.85-1.624-2.776-4.174-2.776-7.687s.926-6.063 2.776-7.668c1.85-1.606 4.55-2.418 8.118-2.418 3.569 0 6.268.812 8.1 2.418 1.85 1.605 2.756 4.174 2.756 7.668 0 3.513-.925 6.082-2.756 7.687zm-3.701-12.503c-.906-1.077-2.379-1.625-4.418-1.625s-3.511.548-4.418 1.625c-.906 1.076-1.378 2.7-1.378 4.835 0 2.134.453 3.74 1.378 4.816.907 1.077 2.379 1.625 4.418 1.625s3.493-.53 4.418-1.625c.907-1.076 1.36-2.682 1.36-4.816s-.453-3.759-1.36-4.835zm12.424-4.571h-1.284c-1.058 0-1.907.85-1.926 1.927v15.563c0 1.058.85 1.908 1.907 1.908h1.303c1.057 0 1.906-.85 1.906-1.908v-6.29h9.289v6.29c0 1.058.85 1.908 1.907 1.908h1.265c1.058 0 1.907-.85 1.907-1.908L351 10.502c0-1.058-.85-1.908-1.907-1.908h-1.284c-1.057 0-1.907.85-1.907 1.908v5.458h-9.289v-5.458a1.901 1.901 0 00-1.906-1.908z" fill="#121628"/></svg>