<svg width="103" height="103" fill="none" xmlns="http://www.w3.org/2000/svg"><path d="M3.121 0H0v3.121h3.121V0zm3.121 0h-3.12v3.121h3.12V0zm3.122 0H6.242v3.121h3.122V0zm3.121 0H9.364v3.121h3.12V0zm3.121 0h-3.121v3.121h3.121V0zm3.121 0h-3.121v3.121h3.121V0zm3.122 0h-3.122v3.121h3.122V0zm12.484 0h-3.12v3.121h3.12V0zm6.243 0h-3.121v3.121h3.12V0zm3.121 0h-3.121v3.121h3.12V0zm6.243 0h-3.122v3.121h3.121V0zm6.242 0H53.06v3.121h3.122V0z" fill="#fff"/><path d="M59.303 0h-3.121v3.121h3.121V0zm3.121 0h-3.121v3.121h3.121V0zm6.243 0h-3.122v3.121h3.122V0zm6.242 0h-3.121v3.121h3.121V0zm9.364 0h-3.121v3.121h3.12V0zm3.121 0h-3.121v3.121h3.12V0zm3.121 0h-3.121v3.121h3.121V0zm3.121 0h-3.12v3.121h3.12V0zm3.122 0h-3.121v3.121h3.12V0zm3.121 0h-3.121v3.121h3.12V0zM103 0h-3.121v3.121H103V0zM3.121 3.121H0v3.121h3.121v-3.12zm18.728 0h-3.122v3.121h3.122v-3.12zm6.241 0h-3.12v3.121h3.12v-3.12zm6.243 0h-3.12v3.121h3.12v-3.12zm9.364 0h-3.121v3.121h3.12v-3.12z" fill="#fff"/><path d="M46.818 3.121h-3.121v3.121h3.121v-3.12zm3.122 0h-3.122v3.121h3.121v-3.12zm6.242 0H53.06v3.121h3.122v-3.12zm9.364 0h-3.122v3.121h3.122v-3.12z" fill="#fff"/><path d="M68.667 3.121h-3.122v3.121h3.122v-3.12zm3.121 0h-3.121v3.121h3.121v-3.12zm12.485 0h-3.121v3.121h3.12v-3.12zm18.727 0h-3.121v3.121H103v-3.12zM3.121 6.242H0v3.121h3.121v-3.12zm6.243 0H6.242v3.121h3.122v-3.12zm3.121 0H9.364v3.121h3.12v-3.12zm3.121 0h-3.121v3.121h3.121v-3.12zm6.243 0h-3.122v3.121h3.122v-3.12zm18.727 0h-3.121v3.121h3.12v-3.12zm3.121 0h-3.121v3.121h3.12v-3.12zm9.363 0h-3.12v3.121h3.12v-3.12zm9.364 0h-3.121v3.121h3.121v-3.12zm3.122 0h-3.122v3.121h3.122v-3.12z" fill="#fff"/><path d="M68.667 6.242h-3.122v3.121h3.122v-3.12zm6.242 0h-3.121v3.121h3.121v-3.12zm9.364 0h-3.121v3.121h3.12v-3.12zm6.242 0h-3.121v3.121h3.121v-3.12zm3.121 0h-3.12v3.121h3.12v-3.12zm3.122 0h-3.121v3.121h3.12v-3.12zm6.242 0h-3.121v3.121H103v-3.12zM3.121 9.363H0v3.122h3.121V9.363zm6.243 0H6.242v3.122h3.122V9.363zm3.121 0H9.364v3.122h3.12V9.363zm3.121 0h-3.121v3.122h3.121V9.363zm6.243 0h-3.122v3.122h3.122V9.363zm6.241 0h-3.12v3.122h3.12V9.363zm3.122 0h-3.121v3.122h3.121V9.363zm3.121 0h-3.12v3.122h3.12V9.363zm6.243 0h-3.121v3.122h3.12V9.363zm6.242 0h-3.121v3.122h3.121V9.363zm9.364 0H53.06v3.122h3.122V9.363z" fill="#fff"/><path d="M59.303 9.363h-3.121v3.122h3.121V9.363zm6.243 0h-3.122v3.122h3.122V9.363zm6.242 0h-3.121v3.122h3.121V9.363zm3.121 0h-3.121v3.122h3.121V9.363zm3.121 0h-3.12v3.122h3.12V9.363zm6.243 0h-3.121v3.122h3.12V9.363zm6.242 0h-3.121v3.122h3.121V9.363zm3.121 0h-3.12v3.122h3.12V9.363zm3.122 0h-3.121v3.122h3.12V9.363zm6.242 0h-3.121v3.122H103V9.363zM3.121 12.484H0v3.122h3.121v-3.122zm6.243 0H6.242v3.122h3.122v-3.122zm3.121 0H9.364v3.122h3.12v-3.122zm3.121 0h-3.121v3.122h3.121v-3.122zm6.243 0h-3.122v3.122h3.122v-3.122zm9.363 0h-3.121v3.122h3.121v-3.122zm21.848 0h-3.12v3.122h3.12v-3.122zm9.364 0h-3.121v3.122h3.121v-3.122z" fill="#fff"/><path d="M65.546 12.484h-3.122v3.122h3.122v-3.122z" fill="#fff"/><path d="M68.667 12.484h-3.122v3.122h3.122v-3.122zm6.242 0h-3.121v3.122h3.121v-3.122zm3.121 0h-3.12v3.122h3.12v-3.122zm6.243 0h-3.121v3.122h3.12v-3.122zm6.242 0h-3.121v3.122h3.121v-3.122zm3.121 0h-3.12v3.122h3.12v-3.122zm3.122 0h-3.121v3.122h3.12v-3.122zm6.242 0h-3.121v3.122H103v-3.122zM3.121 15.606H0v3.122h3.121v-3.122zm18.728 0h-3.122v3.122h3.122v-3.122zm6.241 0h-3.12v3.122h3.12v-3.122zm3.122 0h-3.121v3.122h3.121v-3.122zm6.243 0h-3.122v3.122h3.122v-3.122zm3.121 0h-3.121v3.122h3.12v-3.122zm9.364 0h-3.122v3.122h3.121v-3.122zm3.12 0h-3.12v3.122h3.12v-3.122zm6.243 0h-3.121v3.122h3.121v-3.122zm6.243 0h-3.122v3.122h3.122v-3.122z" fill="#fff"/><path d="M68.667 15.606h-3.122v3.122h3.122v-3.122zm3.121 0h-3.121v3.122h3.121v-3.122zm12.485 0h-3.121v3.122h3.12v-3.122zm18.727 0h-3.121v3.122H103v-3.122zM3.121 18.727H0v3.122h3.121v-3.122zm3.121 0h-3.12v3.122h3.12v-3.122zm3.122 0H6.242v3.122h3.122v-3.122zm3.121 0H9.364v3.122h3.12v-3.122zm3.121 0h-3.121v3.122h3.121v-3.122zm3.121 0h-3.121v3.122h3.121v-3.122zm3.122 0h-3.122v3.122h3.122v-3.122zm6.241 0h-3.12v3.122h3.12v-3.122zm6.243 0h-3.12v3.122h3.12v-3.122zm6.243 0h-3.121v3.122h3.12v-3.122zm6.242 0h-3.121v3.122h3.121v-3.122zm6.242 0h-3.12v3.122h3.12v-3.122zm6.243 0h-3.121v3.122h3.121v-3.122z" fill="#fff"/><path d="M65.546 18.727h-3.122v3.122h3.122v-3.122zm6.242 0h-3.121v3.122h3.121v-3.122zm6.242 0h-3.12v3.122h3.12v-3.122zm6.243 0h-3.121v3.122h3.12v-3.122zm3.121 0h-3.121v3.122h3.12v-3.122zm3.121 0h-3.121v3.122h3.121v-3.122zm3.121 0h-3.12v3.122h3.12v-3.122zm3.122 0h-3.121v3.122h3.12v-3.122zm3.121 0h-3.121v3.122h3.12v-3.122zm3.121 0h-3.121v3.122H103v-3.122zm-71.788 3.122h-3.121v3.12h3.121v-3.12zm3.121 0h-3.12v3.12h3.12v-3.12zm3.122 0h-3.122v3.12h3.122v-3.12zm9.363 0h-3.121v3.12h3.121v-3.12zm6.242 0h-3.12v3.12h3.12v-3.12zm12.486 0h-3.122v3.12h3.122v-3.12z" fill="#fff"/><path d="M68.667 21.849h-3.122v3.12h3.122v-3.12zm3.121 0h-3.121v3.12h3.121v-3.12zm3.121 0h-3.121v3.12h3.121v-3.12zm3.121 0h-3.12v3.12h3.12v-3.12zM3.121 24.97H0v3.12h3.121v-3.12zm3.121 0h-3.12v3.12h3.12v-3.12zm3.122 0H6.242v3.12h3.122v-3.12zm3.121 0H9.364v3.12h3.12v-3.12zm3.121 0h-3.121v3.12h3.121v-3.12zm6.243 0h-3.122v3.12h3.122v-3.12z" fill="#fff"/><path d="M24.97 24.97h-3.122v3.12h3.122v-3.12zm3.12 0h-3.12v3.12h3.12v-3.12zm3.122 0h-3.121v3.12h3.121v-3.12zm6.243 0h-3.122v3.12h3.122v-3.12zm18.727 0H53.06v3.12h3.122v-3.12z" fill="#fff"/><path d="M59.303 24.97h-3.121v3.12h3.121v-3.12zm12.485 0h-3.121v3.12h3.121v-3.12zm9.363 0h-3.12v3.12h3.12v-3.12zm6.243 0h-3.121v3.12h3.12v-3.12zm6.242 0h-3.12v3.12h3.12v-3.12zm6.243 0h-3.121v3.12h3.12v-3.12zM6.242 28.09h-3.12v3.122h3.12v-3.121zm6.243 0H9.364v3.122h3.12v-3.121zm3.121 0h-3.121v3.122h3.121v-3.121zm3.121 0h-3.121v3.122h3.121v-3.121zm9.363 0h-3.12v3.122h3.12v-3.121zm6.243 0h-3.12v3.122h3.12v-3.121zm6.243 0h-3.121v3.122h3.12v-3.121zm3.121 0h-3.121v3.122h3.12v-3.121z" fill="#fff"/><path d="M46.818 28.09h-3.121v3.122h3.121v-3.121zm6.242 0h-3.12v3.122h3.12v-3.121zm9.364 0h-3.121v3.122h3.121v-3.121zm3.122 0h-3.122v3.122h3.122v-3.121z" fill="#fff"/><path d="M68.667 28.09h-3.122v3.122h3.122v-3.121zm6.242 0h-3.121v3.122h3.121v-3.121zm9.364 0h-3.121v3.122h3.12v-3.121zm3.121 0h-3.121v3.122h3.12v-3.121zm9.364 0h-3.121v3.122h3.12v-3.121zm3.121 0h-3.121v3.122h3.12v-3.121zm3.121 0h-3.121v3.122H103v-3.121zM3.121 31.212H0v3.121h3.121v-3.121zm9.364 0H9.364v3.121h3.12v-3.121zm9.364 0h-3.122v3.121h3.122v-3.121zm12.484 0h-3.12v3.121h3.12v-3.121zm9.364 0h-3.121v3.121h3.12v-3.121z" fill="#fff"/><path d="M46.818 31.212h-3.121v3.121h3.121v-3.121zm3.122 0h-3.122v3.121h3.121v-3.121zm3.12 0h-3.12v3.121h3.12v-3.121zm3.122 0H53.06v3.121h3.122v-3.121z" fill="#fff"/><path d="M59.303 31.212h-3.121v3.121h3.121v-3.121zm6.243 0h-3.122v3.121h3.122v-3.121zm12.484 0h-3.12v3.121h3.12v-3.121zm3.121 0h-3.12v3.121h3.12v-3.121zm3.122 0h-3.121v3.121h3.12v-3.121zm9.363 0h-3.12v3.121h3.12v-3.121zm6.243 0h-3.121v3.121h3.12v-3.121zM3.121 34.333H0v3.121h3.121v-3.121zm6.243 0H6.242v3.121h3.122v-3.121zm3.121 0H9.364v3.121h3.12v-3.121zm3.121 0h-3.121v3.121h3.121v-3.121zm12.484 0h-3.12v3.121h3.12v-3.121zm12.486 0h-3.121v3.121h3.12v-3.121zm3.121 0h-3.121v3.121h3.12v-3.121zm6.243 0h-3.122v3.121h3.121v-3.121zm3.12 0h-3.12v3.121h3.12v-3.121zm15.607 0h-3.122v3.121h3.122v-3.121zm3.121 0h-3.121v3.121h3.121v-3.121zm12.485 0h-3.121v3.121h3.12v-3.121zm3.121 0h-3.121v3.121h3.12v-3.121zm9.364 0h-3.121v3.121h3.12v-3.121zM3.121 37.454H0v3.121h3.121v-3.12zm3.121 0h-3.12v3.121h3.12v-3.12zm3.122 0H6.242v3.121h3.122v-3.12zm6.242 0h-3.121v3.121h3.121v-3.12zm6.243 0h-3.122v3.121h3.122v-3.12z" fill="#fff"/><path d="M24.97 37.454h-3.122v3.121h3.122v-3.12zm6.242 0h-3.121v3.121h3.121v-3.12zm3.121 0h-3.12v3.121h3.12v-3.12zm6.243 0h-3.121v3.121h3.12v-3.12zm6.242 0h-3.121v3.121h3.121v-3.12zm9.364 0H53.06v3.121h3.122v-3.12z" fill="#fff"/><path d="M59.303 37.454h-3.121v3.121h3.121v-3.12zm3.121 0h-3.121v3.121h3.121v-3.12zm9.364 0h-3.121v3.121h3.121v-3.12zm6.242 0h-3.12v3.121h3.12v-3.12zm3.121 0h-3.12v3.121h3.12v-3.12zm6.243 0h-3.121v3.121h3.12v-3.12zm3.121 0h-3.121v3.121h3.121v-3.12zm3.121 0h-3.12v3.121h3.12v-3.12zM3.121 40.576H0v3.121h3.121v-3.12zm9.364 0H9.364v3.121h3.12v-3.12zm3.121 0h-3.121v3.121h3.121v-3.12zm3.121 0h-3.121v3.121h3.121v-3.12zm6.243 0h-3.122v3.121h3.122v-3.12zm28.09 0h-3.12v3.121h3.12v-3.12zm3.122 0H53.06v3.121h3.122v-3.12zm6.242 0h-3.121v3.121h3.121v-3.12zm3.122 0h-3.122v3.121h3.122v-3.12zm9.363 0h-3.121v3.121h3.121v-3.12zm9.364 0h-3.121v3.121h3.12v-3.12zm15.606 0h-3.121v3.121h3.12v-3.12zm3.121 0h-3.121v3.121H103v-3.12zm-90.515 3.121H9.364v3.121h3.12v-3.12zm3.121 0h-3.121v3.121h3.121v-3.12zm6.243 0h-3.122v3.121h3.122v-3.12z" fill="#fff"/><path d="M24.97 43.697h-3.122v3.121h3.122v-3.12zm3.12 0h-3.12v3.121h3.12v-3.12zm3.122 0h-3.121v3.121h3.121v-3.12zm3.121 0h-3.12v3.121h3.12v-3.12zm3.122 0h-3.122v3.121h3.122v-3.12zm3.121 0h-3.121v3.121h3.12v-3.12zm9.364 0h-3.122v3.121h3.121v-3.12zm3.12 0h-3.12v3.121h3.12v-3.12zm6.243 0h-3.121v3.121h3.121v-3.12zm9.364 0h-3.122v3.121h3.122v-3.12zm3.121 0h-3.121v3.121h3.121v-3.12zm6.242 0h-3.12v3.121h3.12v-3.12zm3.121 0h-3.12v3.121h3.12v-3.12zm9.364 0h-3.121v3.121h3.121v-3.12zm9.364 0h-3.121v3.121h3.12v-3.12zM9.364 46.818H6.242v3.122h3.122v-3.122zm9.363 0h-3.121v3.122h3.121v-3.122z" fill="#fff"/><path d="M28.09 46.818h-3.12v3.122h3.12v-3.122zm6.243 0h-3.12v3.122h3.12v-3.122zm3.122 0h-3.122v3.122h3.122v-3.122zm9.363 0h-3.121v3.122h3.121v-3.122zm3.122 0h-3.122v3.122h3.121v-3.122zm3.12 0h-3.12v3.122h3.12v-3.122zm9.364 0h-3.121v3.122h3.121v-3.122zm3.122 0h-3.122v3.122h3.122v-3.122z" fill="#fff"/><path d="M68.667 46.818h-3.122v3.122h3.122v-3.122zm6.242 0h-3.121v3.122h3.121v-3.122zm3.121 0h-3.12v3.122h3.12v-3.122zm3.121 0h-3.12v3.122h3.12v-3.122zm3.122 0h-3.121v3.122h3.12v-3.122zm3.121 0h-3.121v3.122h3.12v-3.122zm9.364 0h-3.121v3.122h3.12v-3.122zM15.606 49.94h-3.121v3.12h3.121v-3.12zm3.121 0h-3.121v3.12h3.121v-3.12zm3.122 0h-3.122v3.12h3.122v-3.12zm6.241 0h-3.12v3.12h3.12v-3.12zm3.122 0h-3.121v3.12h3.121v-3.12zm6.243 0h-3.122v3.12h3.122v-3.12zm18.727 0H53.06v3.12h3.122v-3.12z" fill="#fff"/><path d="M59.303 49.94h-3.121v3.12h3.121v-3.12zm6.243 0h-3.122v3.12h3.122v-3.12zm6.242 0h-3.121v3.12h3.121v-3.12zm9.363 0h-3.12v3.12h3.12v-3.12zm9.364 0h-3.121v3.12h3.121v-3.12zm9.364 0h-3.121v3.12h3.12v-3.12zM6.242 53.06h-3.12v3.122h3.12V53.06zm6.243 0H9.364v3.122h3.12V53.06zm3.121 0h-3.121v3.122h3.121V53.06zm3.121 0h-3.121v3.122h3.121V53.06zm9.363 0h-3.12v3.122h3.12V53.06zm3.122 0h-3.121v3.122h3.121V53.06zm9.364 0h-3.121v3.122h3.12V53.06zm3.121 0h-3.121v3.122h3.12V53.06z" fill="#fff"/><path d="M46.818 53.06h-3.121v3.122h3.121V53.06zm6.242 0h-3.12v3.122h3.12V53.06zm3.122 0H53.06v3.122h3.122V53.06zm6.242 0h-3.121v3.122h3.121V53.06zm3.122 0h-3.122v3.122h3.122V53.06z" fill="#fff"/><path d="M68.667 53.06h-3.122v3.122h3.122V53.06zm6.242 0h-3.121v3.122h3.121V53.06zm9.364 0h-3.121v3.122h3.12V53.06zm9.363 0h-3.12v3.122h3.12V53.06zm6.243 0h-3.121v3.122h3.12V53.06zm3.121 0h-3.121v3.122H103V53.06zM3.121 56.182H0v3.12h3.121v-3.12zm3.121 0h-3.12v3.12h3.12v-3.12zm6.243 0H9.364v3.12h3.12v-3.12zm3.121 0h-3.121v3.12h3.121v-3.12zm6.243 0h-3.122v3.12h3.122v-3.12z" fill="#fff"/><path d="M24.97 56.182h-3.122v3.12h3.122v-3.12zm9.363 0h-3.12v3.12h3.12v-3.12zm9.364 0h-3.121v3.12h3.12v-3.12z" fill="#fff"/><path d="M46.818 56.182h-3.121v3.12h3.121v-3.12zm3.122 0h-3.122v3.12h3.121v-3.12zm3.12 0h-3.12v3.12h3.12v-3.12zm6.243 0h-3.121v3.12h3.121v-3.12zm6.243 0h-3.122v3.12h3.122v-3.12z" fill="#fff"/><path d="M68.667 56.182h-3.122v3.12h3.122v-3.12zm12.484 0h-3.12v3.12h3.12v-3.12zm3.122 0h-3.121v3.12h3.12v-3.12zm3.121 0h-3.121v3.12h3.12v-3.12zm3.121 0h-3.121v3.12h3.121v-3.12zm3.121 0h-3.12v3.12h3.12v-3.12zm6.243 0h-3.121v3.12h3.12v-3.12zm-87.394 3.121H9.364v3.12h3.12v-3.12zm3.121 0h-3.121v3.12h3.121v-3.12zm12.484 0h-3.12v3.12h3.12v-3.12zm6.243 0h-3.12v3.12h3.12v-3.12zm6.243 0h-3.121v3.12h3.12v-3.12zm3.121 0h-3.121v3.12h3.12v-3.12zm9.363 0h-3.12v3.12h3.12v-3.12zm9.364 0h-3.121v3.12h3.121v-3.12zm3.122 0h-3.122v3.12h3.122v-3.12z" fill="#fff"/><path d="M68.667 59.303h-3.122v3.12h3.122v-3.12zm3.121 0h-3.121v3.12h3.121v-3.12zm3.121 0h-3.121v3.12h3.121v-3.12zm6.242 0h-3.12v3.12h3.12v-3.12zm3.122 0h-3.121v3.12h3.12v-3.12zm12.485 0h-3.121v3.12h3.12v-3.12zM3.121 62.424H0v3.121h3.121v-3.121zm3.121 0h-3.12v3.121h3.12v-3.121zm3.122 0H6.242v3.121h3.122v-3.121zm6.242 0h-3.121v3.121h3.121v-3.121zm6.243 0h-3.122v3.121h3.122v-3.121zm18.727 0h-3.121v3.121h3.12v-3.121zm6.242 0h-3.121v3.121h3.121v-3.121zm9.364 0H53.06v3.121h3.122v-3.121z" fill="#fff"/><path d="M59.303 62.424h-3.121v3.121h3.121v-3.121zm3.121 0h-3.121v3.121h3.121v-3.121zm9.364 0h-3.121v3.121h3.121v-3.121zm3.121 0h-3.121v3.121h3.121v-3.121zm3.121 0h-3.12v3.121h3.12v-3.121zm3.121 0h-3.12v3.121h3.12v-3.121zm6.243 0h-3.121v3.121h3.12v-3.121zm3.121 0h-3.121v3.121h3.121v-3.121zm9.364 0h-3.121v3.121h3.12v-3.121zM3.121 65.546H0v3.121h3.121v-3.121zm6.243 0H6.242v3.121h3.122v-3.121zm15.606 0h-3.122v3.121h3.122v-3.121zm28.09 0h-3.12v3.121h3.12v-3.121zm3.122 0H53.06v3.121h3.122v-3.121zm6.242 0h-3.121v3.121h3.121v-3.121zm6.243 0h-3.122v3.121h3.122v-3.121zm3.121 0h-3.121v3.121h3.121v-3.121zm3.121 0h-3.121v3.121h3.121v-3.121zm3.121 0h-3.12v3.121h3.12v-3.121zm3.121 0h-3.12v3.121h3.12v-3.121zm3.122 0h-3.121v3.121h3.12v-3.121zm9.363 0h-3.12v3.121h3.12v-3.121zm6.243 0h-3.121v3.121h3.12v-3.121zm3.121 0h-3.121v3.121H103v-3.121zM3.121 68.667H0v3.121h3.121v-3.121zm12.485 0h-3.121v3.121h3.121v-3.121zm3.121 0h-3.121v3.121h3.121v-3.121zm3.122 0h-3.122v3.121h3.122v-3.121z" fill="#fff"/><path d="M24.97 68.667h-3.122v3.121h3.122v-3.121zm3.12 0h-3.12v3.121h3.12v-3.121zm3.122 0h-3.121v3.121h3.121v-3.121zm6.243 0h-3.122v3.121h3.122v-3.121zm3.121 0h-3.121v3.121h3.12v-3.121zm9.364 0h-3.122v3.121h3.121v-3.121zm3.12 0h-3.12v3.121h3.12v-3.121zm6.243 0h-3.121v3.121h3.121v-3.121zm21.848 0h-3.12v3.121h3.12v-3.121zm6.243 0h-3.121v3.121h3.12v-3.121zm3.121 0h-3.121v3.121h3.121v-3.121zm3.121 0h-3.12v3.121h3.12v-3.121zm6.243 0h-3.121v3.121h3.12v-3.121zM3.121 71.788H0v3.121h3.121v-3.12zm6.243 0H6.242v3.121h3.122v-3.12zm6.242 0h-3.121v3.121h3.121v-3.12zm3.121 0h-3.121v3.121h3.121v-3.12zm6.243 0h-3.122v3.121h3.122v-3.12zm3.12 0h-3.12v3.121h3.12v-3.12zm3.122 0h-3.121v3.121h3.121v-3.12zm6.243 0h-3.122v3.121h3.122v-3.12zm9.363 0h-3.121v3.121h3.121v-3.12zm15.606 0h-3.121v3.121h3.121v-3.12zm3.122 0h-3.122v3.121h3.122v-3.12z" fill="#fff"/><path d="M68.667 71.788h-3.122v3.121h3.122v-3.12zm15.606 0h-3.121v3.121h3.12v-3.12zm6.242 0h-3.121v3.121h3.121v-3.12zm3.121 0h-3.12v3.121h3.12v-3.12zm3.122 0h-3.121v3.121h3.12v-3.12zM3.121 74.91H0v3.12h3.121v-3.12zm9.364 0H9.364v3.12h3.12v-3.12zm6.242 0h-3.121v3.12h3.121v-3.12zm3.122 0h-3.122v3.12h3.122v-3.12z" fill="#fff"/><path d="M24.97 74.91h-3.122v3.12h3.122v-3.12zm6.242 0h-3.121v3.12h3.121v-3.12zm3.121 0h-3.12v3.12h3.12v-3.12zm3.122 0h-3.122v3.12h3.122v-3.12zm12.485 0h-3.122v3.12h3.121v-3.12zm6.242 0H53.06v3.12h3.122v-3.12z" fill="#fff"/><path d="M59.303 74.91h-3.121v3.12h3.121v-3.12zm3.121 0h-3.121v3.12h3.121v-3.12zm9.364 0h-3.121v3.12h3.121v-3.12zm6.242 0h-3.12v3.12h3.12v-3.12zm3.121 0h-3.12v3.12h3.12v-3.12zm3.122 0h-3.121v3.12h3.12v-3.12zm3.121 0h-3.121v3.12h3.12v-3.12zm3.121 0h-3.121v3.12h3.121v-3.12zm3.121 0h-3.12v3.12h3.12v-3.12zm9.364 0h-3.121v3.12H103v-3.12zm-74.91 3.12h-3.12v3.121h3.12v-3.12zm12.486 0h-3.121v3.121h3.12v-3.12zm3.121 0h-3.121v3.121h3.12v-3.12zm3.121 0h-3.121v3.121h3.121v-3.12zm6.242 0h-3.12v3.121h3.12v-3.12zm9.364 0h-3.121v3.121h3.121v-3.12zm3.122 0h-3.122v3.121h3.122v-3.12z" fill="#fff"/><path d="M68.667 78.03h-3.122v3.121h3.122v-3.12zm6.242 0h-3.121v3.121h3.121v-3.12zm3.121 0h-3.12v3.121h3.12v-3.12zm12.485 0h-3.121v3.121h3.121v-3.12zm6.243 0h-3.121v3.121h3.12v-3.12zm6.242 0h-3.121v3.121H103v-3.12zM3.121 81.151H0v3.122h3.121V81.15zm3.121 0h-3.12v3.122h3.12V81.15zm3.122 0H6.242v3.122h3.122V81.15zm3.121 0H9.364v3.122h3.12V81.15zm3.121 0h-3.121v3.122h3.121V81.15zm3.121 0h-3.121v3.122h3.121V81.15zm3.122 0h-3.122v3.122h3.122V81.15zm6.241 0h-3.12v3.122h3.12V81.15zm3.122 0h-3.121v3.122h3.121V81.15zm12.485 0h-3.121v3.122h3.12V81.15z" fill="#fff"/><path d="M46.818 81.151h-3.121v3.122h3.121V81.15zm3.122 0h-3.122v3.122h3.121V81.15zm3.12 0h-3.12v3.122h3.12V81.15zm3.122 0H53.06v3.122h3.122V81.15zm9.364 0h-3.122v3.122h3.122V81.15z" fill="#fff"/><path d="M68.667 81.151h-3.122v3.122h3.122V81.15zm6.242 0h-3.121v3.122h3.121V81.15zm3.121 0h-3.12v3.122h3.12V81.15zm6.243 0h-3.121v3.122h3.12V81.15zm6.242 0h-3.121v3.122h3.121V81.15zm6.243 0h-3.121v3.122h3.12V81.15zm3.121 0h-3.121v3.122h3.12V81.15zM3.121 84.272H0v3.122h3.121v-3.122zm18.728 0h-3.122v3.122h3.122v-3.122zm12.484 0h-3.12v3.122h3.12v-3.122zm6.243 0h-3.121v3.122h3.12v-3.122zm3.121 0h-3.121v3.122h3.12v-3.122zm9.363 0h-3.12v3.122h3.12v-3.122zm9.364 0h-3.121v3.122h3.121v-3.122z" fill="#fff"/><path d="M65.546 84.272h-3.122v3.122h3.122v-3.122z" fill="#fff"/><path d="M68.667 84.272h-3.122v3.122h3.122v-3.122zm3.121 0h-3.121v3.122h3.121v-3.122zm3.121 0h-3.121v3.122h3.121v-3.122zm3.121 0h-3.12v3.122h3.12v-3.122zm12.485 0h-3.121v3.122h3.121v-3.122zm3.121 0h-3.12v3.122h3.12v-3.122zm3.122 0h-3.121v3.122h3.12v-3.122zm3.121 0h-3.121v3.122h3.12v-3.122zm3.121 0h-3.121v3.122H103v-3.122zM3.121 87.394H0v3.12h3.121v-3.12zm6.243 0H6.242v3.12h3.122v-3.12zm3.121 0H9.364v3.12h3.12v-3.12zm3.121 0h-3.121v3.12h3.121v-3.12zm6.243 0h-3.122v3.12h3.122v-3.12zm6.241 0h-3.12v3.12h3.12v-3.12zm6.243 0h-3.12v3.12h3.12v-3.12zm6.243 0h-3.121v3.12h3.12v-3.12zm6.242 0h-3.121v3.12h3.121v-3.12zm9.364 0H53.06v3.12h3.122v-3.12z" fill="#fff"/><path d="M59.303 87.394h-3.121v3.12h3.121v-3.12zm3.121 0h-3.121v3.12h3.121v-3.12zm9.364 0h-3.121v3.12h3.121v-3.12zm6.242 0h-3.12v3.12h3.12v-3.12zm3.121 0h-3.12v3.12h3.12v-3.12zm3.122 0h-3.121v3.12h3.12v-3.12zm3.121 0h-3.121v3.12h3.12v-3.12zm3.121 0h-3.121v3.12h3.121v-3.12zm3.121 0h-3.12v3.12h3.12v-3.12zm9.364 0h-3.121v3.12H103v-3.12zM3.121 90.516H0v3.12h3.121v-3.12zm6.243 0H6.242v3.12h3.122v-3.12zm3.121 0H9.364v3.12h3.12v-3.12zm3.121 0h-3.121v3.12h3.121v-3.12zm6.243 0h-3.122v3.12h3.122v-3.12zm6.241 0h-3.12v3.12h3.12v-3.12zm3.122 0h-3.121v3.12h3.121v-3.12zm31.212 0h-3.121v3.12h3.121v-3.12zm3.122 0h-3.122v3.12h3.122v-3.12z" fill="#fff"/><path d="M68.667 90.516h-3.122v3.12h3.122v-3.12zm3.121 0h-3.121v3.12h3.121v-3.12zm15.606 0h-3.121v3.12h3.12v-3.12zm3.121 0h-3.121v3.12h3.121v-3.12zm3.121 0h-3.12v3.12h3.12v-3.12zm3.122 0h-3.121v3.12h3.12v-3.12zm3.121 0h-3.121v3.12h3.12v-3.12zm3.121 0h-3.121v3.12H103v-3.12zM3.121 93.637H0v3.12h3.121v-3.12zm6.243 0H6.242v3.12h3.122v-3.12zm3.121 0H9.364v3.12h3.12v-3.12zm3.121 0h-3.121v3.12h3.121v-3.12zm6.243 0h-3.122v3.12h3.122v-3.12zm6.241 0h-3.12v3.12h3.12v-3.12zm6.243 0h-3.12v3.12h3.12v-3.12zm3.122 0h-3.122v3.12h3.122v-3.12zm3.121 0h-3.121v3.12h3.12v-3.12zm9.364 0h-3.122v3.12h3.121v-3.12zm3.12 0h-3.12v3.12h3.12v-3.12zm6.243 0h-3.121v3.12h3.121v-3.12zm6.243 0h-3.122v3.12h3.122v-3.12z" fill="#fff"/><path d="M68.667 93.637h-3.122v3.12h3.122v-3.12zm3.121 0h-3.121v3.12h3.121v-3.12zm6.242 0h-3.12v3.12h3.12v-3.12zm6.243 0h-3.121v3.12h3.12v-3.12zm3.121 0h-3.121v3.12h3.12v-3.12zm6.242 0h-3.12v3.12h3.12v-3.12zm3.122 0h-3.121v3.12h3.12v-3.12zM3.121 96.758H0v3.121h3.121v-3.121zm18.728 0h-3.122v3.121h3.122v-3.121zm6.241 0h-3.12v3.121h3.12v-3.121zm9.365 0h-3.122v3.121h3.122v-3.121zm9.363 0h-3.121v3.121h3.121v-3.121zm3.122 0h-3.122v3.121h3.121v-3.121zm9.363 0h-3.121v3.121h3.121v-3.121zm9.364 0h-3.122v3.121h3.122v-3.121zm6.242 0h-3.121v3.121h3.121v-3.121zm6.242 0h-3.12v3.121h3.12v-3.121zm3.122 0h-3.121v3.121h3.12v-3.121zm3.121 0h-3.121v3.121h3.12v-3.121zm3.121 0h-3.121v3.121h3.121v-3.121zm3.121 0h-3.12v3.121h3.12v-3.121zm3.122 0h-3.121v3.121h3.12v-3.121zM3.121 99.879H0V103h3.121v-3.121zm3.121 0h-3.12V103h3.12v-3.121zm3.122 0H6.242V103h3.122v-3.121zm3.121 0H9.364V103h3.12v-3.121zm3.121 0h-3.121V103h3.121v-3.121zm3.121 0h-3.121V103h3.121v-3.121zm3.122 0h-3.122V103h3.122v-3.121zm6.241 0h-3.12V103h3.12v-3.121zm6.243 0h-3.12V103h3.12v-3.121zm3.122 0h-3.122V103h3.122v-3.121zm15.605 0h-3.12V103h3.12v-3.121zm3.122 0H53.06V103h3.122v-3.121z" fill="#fff"/><path d="M59.303 99.879h-3.121V103h3.121v-3.121zm3.121 0h-3.121V103h3.121v-3.121zm9.364 0h-3.121V103h3.121v-3.121zm3.121 0h-3.121V103h3.121v-3.121zm3.121 0h-3.12V103h3.12v-3.121zm6.243 0h-3.121V103h3.12v-3.121zm3.121 0h-3.121V103h3.12v-3.121zm12.485 0h-3.121V103h3.12v-3.121z" fill="#fff"/></svg>